<svg version="1.2" xmlns="http://www.w3.org/2000/svg" viewBox="0 0 460 460" width="460" height="460"><style>.a{fill:none;stroke:#231f20;stroke-miterlimit:10;stroke-width:10.3}</style><path fill-rule="evenodd" class="a" d="m229.7 432.4c-112.1 0-202.7-90.6-202.7-202.7 0-112.1 90.6-202.7 202.7-202.7 112.1 0 202.7 90.6 202.7 202.7 0 112.1-90.6 202.7-202.7 202.7z"/><path fill-rule="evenodd" class="a" d="m153.8 41.7c0 0-7 85.4-98.7 85.1"/><path fill-rule="evenodd" class="a" d="m164.7 37.7v384"/><path fill-rule="evenodd" class="a" d="m35.6 175.2c0 0 91.4-1.5 129.1-90.9"/><path fill-rule="evenodd" class="a" d="m27.9 248.1c0 0 17.7-44.3 80.5-67.4 62.8-23.1 55.1-93.8 55.1-93.8"/><path fill-rule="evenodd" class="a" d="m35.6 288.1c0-0.1 0.2-32.1 65.4-52.2 65.3-20 63.7-78 63.7-78"/><path fill-rule="evenodd" class="a" d="m50.9 325.2c0 0 25.4-28.9 67.5-37.1 42.2-8.4 46.3-62.7 46.3-62.7"/><path fill-rule="evenodd" class="a" d="m90 376.5c0 0 0.8-49.6 32.9-74.2 32.2-24.6 40.9-57.3 40.9-57.3"/><path fill-rule="evenodd" class="a" d="m128 405c0 0-11.5-43.9 36.7-69.1"/><path fill-rule="evenodd" class="a" d="m282.4 34c0 0-1.8 93 135.7 120.6"/><path fill-rule="evenodd" class="a" d="m225.4 30.5c0 0-16.6 91.1 69.3 132.2v259"/><path fill-rule="evenodd" class="a" d="m294.7 419.3c0 0 20.1-74.4 73.9-91.9 53.7-17.6 63.8-87.1 63.8-87.1 0 0-63.9-53.9-137.7-77.6"/><path fill-rule="evenodd" class="a" d="m294.7 343.4c0 0 7.4-30.2 44.9-44.5 4.1-1.6 8.5-3 13.5-4.2 49.1-11.6 44.1-82.8 8.2-102.4"/><path fill-rule="evenodd" class="a" d="m327.2 175.2c0 0 64.4 78.3 18.5 121.5"/><path fill-rule="evenodd" class="a" d="m294.7 288.1c0-0.1 72.8-54.5 0-125.4"/><path fill-rule="evenodd" class="a" d="m164.7 248.1c0 0 65.6-38 130 0"/></svg>